<svg width="400" height="400" viewBox="0 0 400 400" fill="none" xmlns="http://www.w3.org/2000/svg">
<rect width="400" height="400" rx="200" fill="#4169FA"/>
<path fill-rule="evenodd" clip-rule="evenodd" d="M284.865 197.259C284.865 197.259 284.865 197.259 284.865 197.259L203.255 88.6171C202.233 87.2571 200.631 86.4569 198.93 86.4569H155.115C150.656 86.4569 148.112 91.549 150.79 95.1142L190.611 148.125C193.951 152.571 189.213 158.558 184.118 156.329L164.605 147.792C159.915 145.729 155.236 145.198 152.315 148.161C148.633 151.895 150.234 155.954 152.97 160.972L168.324 189.235C170.121 192.607 171.662 193.966 175.008 194.064L224.985 195.405C225.721 195.425 226.408 195.78 226.85 196.368L227.451 197.168C227.529 197.271 227.65 197.332 227.78 197.332C228.113 197.332 228.308 197.708 228.117 197.98L226.583 200.164C226.262 200.62 225.748 200.902 225.192 200.927L175.072 203.171C171.849 203.274 170.366 204.534 168.457 208.014L153.781 235.804C150.957 241.103 149.254 245.347 153.029 249.068C155.951 251.949 160.502 251.473 165.845 249.058L186.54 239.646C191.556 237.364 196.373 243.169 193.205 247.678L152.921 305.025C150.403 308.609 152.967 313.543 157.347 313.543H197.743C199.476 313.543 201.104 312.713 202.121 311.311L284.8 197.35C284.808 197.339 284.821 197.332 284.834 197.332H284.853C284.881 197.332 284.896 197.301 284.88 197.279L284.865 197.26C284.865 197.26 284.865 197.26 284.865 197.26C284.866 197.259 284.865 197.259 284.865 197.259H284.865Z" fill="white"/>
</svg>
