<svg width="40" height="40" viewBox="0 0 40 40" fill="none" xmlns="http://www.w3.org/2000/svg">
<path d="M0 9.5C0 4.25329 4.25329 0 9.5 0C14.7467 0 19 4.25329 19 9.5V19H9.5C4.25329 19 0 14.7467 0 9.5Z" fill="#1D317A"/>
<path d="M40 9.5C40 4.25329 35.7467 0 30.5 0C25.2533 0 21 4.25329 21 9.5V19H30.5C35.7467 19 40 14.7467 40 9.5Z" fill="#4169FA"/>
<path d="M0 30.5C0 35.7467 4.25329 40 9.5 40C14.7467 40 19 35.7467 19 30.5V21H9.5C4.25329 21 0 25.2533 0 30.5Z" fill="#4169FA"/>
<path d="M40 30.5C40 35.7467 35.7467 40 30.5 40C25.2533 40 21 35.7467 21 30.5V21H30.5C35.7467 21 40 25.2533 40 30.5Z" fill="#1D317A"/>
</svg>
