<svg width="40" height="40" viewBox="0 0 40 40" fill="none" xmlns="http://www.w3.org/2000/svg">
<path fill-rule="evenodd" clip-rule="evenodd" d="M19.9958 5.13581C17.9964 2.7984 14.6624 2.16964 12.1573 4.31001C9.65225 6.45038 9.29958 10.029 11.2668 12.5604C12.9024 14.6651 17.8524 19.1041 19.4747 20.5408C19.6562 20.7016 19.747 20.7819 19.8528 20.8135C19.9452 20.8411 20.0463 20.8411 20.1387 20.8135C20.2446 20.7819 20.3353 20.7016 20.5168 20.5408C22.1391 19.1041 27.0891 14.6651 28.7247 12.5604C30.6919 10.029 30.3823 6.42787 27.8342 4.31001C25.2861 2.19216 21.9951 2.7984 19.9958 5.13581Z" fill="#4169FA"/>
<path d="M3 38.4984V30.9984C20.2 21.7984 24 27.3317 24.5 31.4984C27.938 31.4984 31.0067 27.4353 34.9759 28.1985C36.3133 28.4556 37.093 29.8401 36.8377 31.1778C34.7657 42.0344 13.9809 40.6946 3 38.4984Z" fill="#3854BC"/>
</svg>
