<svg width="38" height="38" viewBox="0 0 38 38" fill="none" xmlns="http://www.w3.org/2000/svg">
<path d="M10.8695 34.2004C8.58093 33.8189 11.3463 26.5717 13.0151 22.9957C12.7767 22.0024 12.8244 20.278 14.9223 21.3269C17.0202 22.3759 23.2662 22.4792 26.1269 22.3997C26.7627 24.6645 28.1295 30.0284 28.5109 33.366C28.9877 37.5379 23.0278 32.5316 20.6438 31.4588C18.2598 30.386 13.7303 34.6772 10.8695 34.2004Z" fill="#3854BC"/>
<path fill-rule="evenodd" clip-rule="evenodd" d="M19 27C25.6274 27 31 21.6274 31 15C31 8.37258 25.6274 3 19 3C12.3726 3 7 8.37258 7 15C7 21.6274 12.3726 27 19 27ZM20.4144 12.3532L19.6657 10.0489C19.4562 9.40402 18.5438 9.40402 18.3343 10.0489L17.5856 12.3532C17.4918 12.6416 17.2231 12.8369 16.9198 12.8369H14.497C13.8189 12.8369 13.5369 13.7046 14.0855 14.1032L16.0457 15.5273C16.291 15.7056 16.3937 16.0215 16.2999 16.3099L15.5512 18.6142C15.3417 19.2591 16.0798 19.7954 16.6284 19.3968L18.5886 17.9727C18.8339 17.7944 19.1661 17.7944 19.4114 17.9727L21.3716 19.3968C21.9202 19.7954 22.6583 19.2591 22.4488 18.6142L21.7001 16.3099C21.6063 16.0215 21.709 15.7056 21.9543 15.5273L23.9145 14.1032C24.4631 13.7046 24.1811 12.8369 23.503 12.8369H21.0802C20.7769 12.8369 20.5082 12.6416 20.4144 12.3532Z" fill="#4169FA"/>
</svg>
