<svg width="34" height="28" viewBox="0 0 34 28" fill="none" xmlns="http://www.w3.org/2000/svg">
<path d="M22.6857 17.6667C19.6968 17.6667 17.0387 19.3504 15.3465 21.9632C14.9823 22.5256 14.8002 22.8068 14.8061 23.1868C14.8107 23.4804 14.9687 23.8508 15.1667 24.032C15.423 24.2667 15.7782 24.2667 16.4885 24.2667H28.8829C29.5932 24.2667 29.9483 24.2667 30.2046 24.032C30.4026 23.8508 30.5607 23.4804 30.5653 23.1868C30.5712 22.8068 30.3891 22.5256 30.0249 21.9632C28.3326 19.3504 25.6746 17.6667 22.6857 17.6667Z" fill="#1D317A"/>
<path d="M22.6857 14.3667C25.0289 14.3667 26.9285 12.1505 26.9285 9.41667C26.9285 6.68286 25.0289 4.46667 22.6857 4.46667C20.3424 4.46667 18.4428 6.68286 18.4428 9.41667C18.4428 12.1505 20.3424 14.3667 22.6857 14.3667Z" fill="#1D317A"/>
<path d="M11.6857 17.6667C8.69675 17.6667 6.03872 19.3504 4.34648 21.9632C3.98226 22.5256 3.80015 22.8068 3.80611 23.1868C3.81071 23.4804 3.96874 23.8508 4.16674 24.032C4.42303 24.2667 4.77819 24.2667 5.4885 24.2667H17.8829C18.5932 24.2667 18.9483 24.2667 19.2046 24.032C19.4026 23.8508 19.5607 23.4804 19.5653 23.1868C19.5712 22.8068 19.3891 22.5256 19.0249 21.9632C17.3326 19.3504 14.6746 17.6667 11.6857 17.6667Z" fill="#1D317A"/>
<path d="M11.6857 14.3667C14.0289 14.3667 15.9285 12.1505 15.9285 9.41667C15.9285 6.68286 14.0289 4.46667 11.6857 4.46667C9.34242 4.46667 7.44283 6.68286 7.44283 9.41667C7.44283 12.1505 9.34242 14.3667 11.6857 14.3667Z" fill="#1D317A"/>
<path d="M18 17.5C14.8299 17.5 12.0108 19.2857 10.216 22.057C9.82971 22.6534 9.63656 22.9516 9.64288 23.3547C9.64776 23.666 9.81536 24.0589 10.0254 24.2511C10.2972 24.5 10.6739 24.5 11.4272 24.5H24.5728C25.3261 24.5 25.7028 24.5 25.9746 24.2511C26.1846 24.0589 26.3522 23.666 26.3571 23.3547C26.3634 22.9516 26.1703 22.6534 25.784 22.057C23.9892 19.2857 21.1701 17.5 18 17.5Z" fill="#4169FA"/>
<path d="M18 14C20.4853 14 22.5 11.6495 22.5 8.75C22.5 5.8505 20.4853 3.5 18 3.5C15.5147 3.5 13.5 5.8505 13.5 8.75C13.5 11.6495 15.5147 14 18 14Z" fill="#4169FA"/>
</svg>
